<svg width="260" height="80"  xmlns="http://www.w3.org/2000/svg" viewBox="0 0 256.4 59.17"><defs><style>.cls-1{fill:#3004ea;}</style></defs><g id="Calque_2" data-name="Calque 2"><g id="Calque_1-2" data-name="Calque 1"><path class="cls-1" d="M174.13,35.22a24.76,24.76,0,0,1,1.08-14.66,16.25,16.25,0,0,1,5.57-7.09V1.11c-.25,0-.48-.05-.71-.05L169.56,1c-.85,0-1,.14-1,1V16.7c-.58-.44-1-.8-1.42-1.08a21.75,21.75,0,0,0-3.37-2,14.32,14.32,0,0,0-18.29,8A22.25,22.25,0,0,0,144.41,34a16.1,16.1,0,0,0,3.77,8.14,14.17,14.17,0,0,0,9.68,4.65,11.68,11.68,0,0,0,9.87-3.26c.22-.22.47-.4.84-.71,0,.94,0,1.7,0,2.46,0,1.08.07,1.19,1.16,1.18l10.25,0c.25,0,.51,0,.81-.07V46a18.06,18.06,0,0,1-1.59-1.33A17.4,17.4,0,0,1,174.13,35.22Zm-6.68-.72a5.15,5.15,0,0,1-4.95,2.87,5.33,5.33,0,0,1-5-2.9,9.65,9.65,0,0,1-.18-8.68,5.68,5.68,0,0,1,10.41.2A9.68,9.68,0,0,1,167.45,34.5Z"/><path class="cls-1" d="M212.35,1c-.56,0-1.11.05-1.67.05h-8.26c-.35,0-.71,0-1.1.06V16.86l-.67-.54c-.43-.39-.84-.8-1.3-1.16a12.2,12.2,0,0,0-8-2.38,13.9,13.9,0,0,0-13.19,8.92,22.32,22.32,0,0,0-.92,12.86,15.39,15.39,0,0,0,4.32,8.26,14.5,14.5,0,0,0,10.16,4,11.5,11.5,0,0,0,8.58-3.16c.29-.28.59-.54,1-.92v2.8c0,.86,0,.86.84.87l10.31,0c1,0,1.17-.19,1.17-1.16v-43C213.66,1.16,213.5,1,212.35,1Zm-12,33.19a5.54,5.54,0,0,1-5.17,3.24,5.36,5.36,0,0,1-5.05-3.27,9.09,9.09,0,0,1,.33-9c1-1.77,2.64-2.62,5.24-2.62a5.16,5.16,0,0,1,4.68,3.32A9.27,9.27,0,0,1,200.38,34.19Z"/><path class="cls-1" d="M109.83,13.18H99.06c-1.42,0-1.54.11-2,1.5q-2.64,8.75-5.29,17.49c-.11.37-.26.74-.44,1.24-.12-.31-.19-.47-.24-.63l-4-11.08c-.9-2.5-1.8-5-2.71-7.51-.31-.84-.54-1-1.42-1l-10.64,0H71.5c.15.38.26.68.38,1,4.28,10.07,8.54,20.15,12.86,30.2a2.63,2.63,0,0,1-.61,3.14,4.82,4.82,0,0,1-5.88.69c-.61-.33-1.16-.74-1.78-1.14l-5,8.1c.06.08.08.12.11.15l.3.23A16.8,16.8,0,0,0,83,58.83a13.47,13.47,0,0,0,8.9-3.39,16.36,16.36,0,0,0,4-6.28q6.54-16.83,13-33.67Z"/><path class="cls-1" d="M255.79,12.7c-.24,0-.47,0-.71,0a11.77,11.77,0,0,0-8.37,4.53c-.2.26-.43.5-.65.75l-.2-.05v-4.7H245c-3.54,0-7.09,0-10.64,0-.63,0-.83.13-.83.81q0,15.76,0,31.53c0,.85,0,.85.85.86l10.06,0c1.3,0,1.42-.14,1.42-1.43,0-5,0-9.93,0-14.9A5.79,5.79,0,0,1,249,24.89a9.58,9.58,0,0,1,4.36-1.24c1,0,2,0,3,0a1.43,1.43,0,0,0,.05-.33c0-3.33,0-6.67,0-10C256.4,12.85,256.21,12.69,255.79,12.7Z"/><path class="cls-1" d="M59.05,16A16.84,16.84,0,0,0,53.76,5,17.56,17.56,0,0,0,41,0C33.39,0,25.76,0,18.13,0A23.06,23.06,0,0,0,15.5.16,17.51,17.51,0,0,0,.5,13.59c-.21.88-.33,1.8-.5,2.7V42.86c.16.88.28,1.77.49,2.64A17.46,17.46,0,0,0,17.61,59.12q12.35.1,24.7,0a16.47,16.47,0,0,0,11.9-5.35,17.39,17.39,0,0,0,4.95-12.61c0-6.62,0-13.24,0-19.86C59.15,19.52,59.19,17.77,59.05,16ZM56.11,29.58V41.31A14.57,14.57,0,0,1,44.18,55.83a15.9,15.9,0,0,1-3,.27q-11.57,0-23.14,0A14.61,14.61,0,0,1,3.42,44.6a14.46,14.46,0,0,1-.33-3q0-12,0-24.05A14.55,14.55,0,0,1,15.53,3.23,20.3,20.3,0,0,1,18.23,3Q29.57,3,40.92,3c6,0,10.61,2.6,13.55,7.92a13.63,13.63,0,0,1,1.63,6.56C56.12,21.54,56.11,25.56,56.11,29.58Z"/><path class="cls-1" d="M41.73,13.34c-.63,0-1.25,0-1.87,0a3.51,3.51,0,0,0-3.27,1.55c-1.45,1.92-2.93,3.82-4.39,5.73-.63.81-1.26,1.63-1.88,2.45a1.11,1.11,0,0,0,0,1.43,1,1,0,0,0,1.27.38,2,2,0,0,0,.87-.71c1.68-2.15,3.43-4.25,5-6.5,1-1.46,2.11-2.27,3.9-1.91h.06c.34.12.86.16,1,.39a1.32,1.32,0,0,1-.28,1C36.06,25.59,30,34,23.92,42.47c-1,1.38-2,2.37-3.77,1.91H18.86c-1.16,0-1.31-.23-.92-1.34a1.62,1.62,0,0,0,.1-.62,1,1,0,0,0-.78-1A1,1,0,0,0,16,41.7a3.07,3.07,0,0,0-.53,3.19A2.81,2.81,0,0,0,18,46.72c1.2.06,2.4,0,3.6,0A3.7,3.7,0,0,0,25,45Q32.6,34.46,40.21,24c1.37-1.9,2.75-3.8,4.1-5.7a3,3,0,0,0,.24-3.34A2.91,2.91,0,0,0,41.73,13.34Z"/><path class="cls-1" d="M24.5,34.55a1.19,1.19,0,0,0,1.27-1.24,5.61,5.61,0,0,0,0-.58V16.94c0-1.12.21-1.29,1.32-1.27,1.41,0,2.83,0,4.24,0a1.43,1.43,0,0,0,1-.51,1.18,1.18,0,0,0-1-1.83c-1.51,0-3,0-4.52,0a3.09,3.09,0,0,0-3.4,3.39v8.06q0,4.26,0,8.51A1.17,1.17,0,0,0,24.5,34.55Z"/><path class="cls-1" d="M224,16.3a6.91,6.91,0,0,1-6.09-3h0v33H230v-33h0A6.82,6.82,0,0,1,224,16.3Z"/><path class="cls-1" d="M224,13.59a4.92,4.92,0,0,0,5.17-5.24,5.21,5.21,0,1,0-10.41.07A4.92,4.92,0,0,0,224,13.59Z"/><path class="cls-1" d="M141,25c-1.27-5.13-4.07-9-9.14-10.94A20.5,20.5,0,0,0,117.16,14a15.75,15.75,0,0,0-5.1,3q-2.66,6.88-5.33,13.78a21.71,21.71,0,0,0,1.06,5.67,13.35,13.35,0,0,0,6.62,8c6.79,3.54,13.66,3.34,20.5.11a13.26,13.26,0,0,0,4.26-3.31l-6-6.41c-1.23.71-2.39,1.46-3.61,2.07a7.5,7.5,0,0,1-6.34.52,6.58,6.58,0,0,1-3.94-4.54h22.29c0-.27.07-.5.09-.73A22.79,22.79,0,0,0,141,25Zm-11.64,1.58H119.18a5.54,5.54,0,0,1,5.61-5.56A5.05,5.05,0,0,1,129.33,26.62Z"/></g></g></svg>